<svg width="26px" height="27px" viewBox="0 0 26 27" version="1.1" xmlns="http://www.w3.org/2000/svg" xmlns:xlink="http://www.w3.org/1999/xlink">
    <g stroke="none" stroke-width="1" fill="none" fill-rule="evenodd">
        <g class="search-trigger__icon" transform="translate(-1379.000000, -34.000000)" fill="currentColor">
            <g transform="translate(42.000000, 0.000000)">
                <g transform="translate(1200.000000, 34.000000)">
                    <path d="M155.173717,16.9358763 L163,24.7617918 L161.305578,26.4562133 L153.479663,18.6299306 C151.746682,19.9971459 149.557595,20.8135089 147.179382,20.8135089 C141.557384,20.8135089 137,16.2557574 137,10.6355956 C137,5.01359758 141.557384,0.456213333 147.179382,0.456213333 C152.799544,0.456213333 157.357296,5.01359758 157.357296,10.6355956 C157.357296,13.0138084 156.540933,15.2028952 155.173717,16.9358763 Z M147.179382,18.4191378 C151.477131,18.4191378 154.962924,14.9333448 154.962924,10.6355956 C154.962924,6.33637744 151.477131,2.85168613 147.179382,2.85168613 C142.880164,2.85168613 139.395473,6.33637744 139.395473,10.6355956 C139.395473,14.9333448 142.880164,18.4191378 147.179382,18.4191378 Z"></path>
                </g>
            </g>
        </g>
    </g>
</svg>
